<?xml version="1.0" encoding="UTF-8" standalone="no"?>
<svg
   xmlns:dc="http://purl.org/dc/elements/1.1/"
   xmlns:cc="http://creativecommons.org/ns#"
   xmlns:rdf="http://www.w3.org/1999/02/22-rdf-syntax-ns#"
   xmlns:svg="http://www.w3.org/2000/svg"
   xmlns="http://www.w3.org/2000/svg"
   xmlns:sodipodi="http://sodipodi.sourceforge.net/DTD/sodipodi-0.dtd"
   xmlns:inkscape="http://www.inkscape.org/namespaces/inkscape"
   version="1.1"
   x="0px"
   y="0px"
   viewBox="0 0 75 75.000001"
   style="fill:#000000"
   xml:space="preserve"
   id="svg4555"
   sodipodi:docname="potato.svg"
   width="75"
   height="75"
   inkscape:version="0.92.1 unknown"><metadata
     id="metadata4561"><rdf:RDF><cc:Work
         rdf:about=""><dc:format>image/svg+xml</dc:format><dc:type
           rdf:resource="http://purl.org/dc/dcmitype/StillImage" /><dc:title></dc:title></cc:Work></rdf:RDF></metadata><defs
     id="defs4559" /><sodipodi:namedview
     pagecolor="#ffffff"
     bordercolor="#666666"
     borderopacity="1"
     objecttolerance="10"
     gridtolerance="10"
     guidetolerance="10"
     inkscape:pageopacity="0"
     inkscape:pageshadow="2"
     inkscape:window-width="1855"
     inkscape:window-height="1056"
     id="namedview4557"
     showgrid="false"
     inkscape:zoom="6.4912403"
     inkscape:cx="39.021915"
     inkscape:cy="27.801882"
     inkscape:window-x="65"
     inkscape:window-y="144"
     inkscape:window-maximized="1"
     inkscape:current-layer="svg4555"
     fit-margin-top="3.56378"
     fit-margin-left="0"
     fit-margin-right="0"
     fit-margin-bottom="3.56378" /><g
     id="g4575"
     transform="matrix(1.0000161,0,0,1.0000161,0,3.5637802)"><g
       transform="translate(-10.91748,-16.343499)"
       id="g4553"><path
         inkscape:connector-curvature="0"
         id="path4543"
         d="M 85.26709,48.855469 85.20752,48.553711 C 83.737732,41.086853 80.051758,22.385681 70.582397,19.038879 70.462829,18.944885 70.331909,18.862427 70.181641,18.806641 69.528809,18.563782 55.932434,13.628784 46.720642,18.445679 c -1.89032,-0.286499 -8.07727,-0.88086 -14.035583,2.414673 -0.396485,0.219726 -0.822266,0.449218 -1.271485,0.691406 -7.163086,3.867187 -20.496094,11.06543 -20.496094,31.411133 0,19.159179 16.995118,27.112304 26.09375,27.112304 0.178101,0 0.346436,-0.03644 0.504883,-0.09338 4.63324,2.010009 12.066712,4.233032 22.282715,4.233032 3.1026,0 6.476623,-0.220642 10.092163,-0.69928 0.824707,-0.0567 1.624329,-0.164978 2.391907,-0.338135 0.0016,-2.44e-4 0.0031,-4.27e-4 0.0047,-6.71e-4 0.103516,-0.01666 0.202576,-0.04389 0.296875,-0.07983 2.96698,-0.736634 5.501893,-2.339661 7.54834,-4.829346 7.321778,-8.90625 5.912598,-25.46582 5.134278,-29.412109 z M 33.625,74.447266 c -0.656738,-0.50586 -1.59668,-0.38086 -2.101563,0.273437 -0.321716,0.417358 -0.38739,0.949341 -0.225341,1.411987 -7.929932,-2.422851 -17.380615,-9.662231 -17.380615,-23.169799 0,-18.555665 11.844238,-24.950196 18.921386,-28.771485 0.458496,-0.24707 0.893067,-0.481445 1.29834,-0.706054 3.170715,-1.754029 6.479675,-2.210633 8.907654,-2.254639 -0.490357,0.5979 -0.465149,1.473938 0.100647,2.020264 0.291015,0.282226 0.666992,0.421875 1.04248,0.421875 0.39209,0 0.78418,-0.153321 1.078614,-0.457032 3.734069,-3.86383 9.808166,-4.221008 14.896057,-3.634643 -0.762268,0.349853 -1.5318,0.792846 -2.283264,1.360229 -3.617188,2.732422 -5.713379,7.391602 -6.229493,13.848633 -1.801269,22.513672 0.536133,37.450195 6.946289,44.393555 0.71167,0.770874 1.475831,1.434143 2.284302,2.003174 C 43.037659,81.420471 33.752869,74.544312 33.625,74.447266 Z m 44.19043,1.915039 c -1.671509,2.033386 -3.689148,3.304565 -6.101807,3.867614 -0.687317,0.109864 -1.364563,0.208313 -2.033752,0.297852 -0.329224,0.02222 -0.657227,0.04645 -0.999695,0.04645 -3.174317,0 -5.751465,-1.120117 -7.879883,-3.425781 -5.736816,-6.214844 -7.867187,-20.779297 -6.160156,-42.120118 0.443848,-5.543945 2.130859,-9.470703 5.015625,-11.668945 2.191894,-1.670898 4.655273,-1.977539 6.171875,-1.977539 0.86914,0 1.427246,0.100586 1.445312,0.103516 0.09473,0.01855 0.190918,0.02832 0.287598,0.02832 6.148926,0 11.096191,9.292969 14.703613,27.620117 l 0.05957,0.301758 c 1.068359,5.417969 1.416503,19.719726 -4.508301,26.926758 z" /><path
         inkscape:connector-curvature="0"
         id="path4545"
         d="m 38.953125,34.707031 c -0.651367,-0.510742 -1.594238,-0.393555 -2.105469,0.257813 -3.54541,4.538086 -4.248535,11.591797 -3.822754,13.001953 0.229493,0.759765 0.79834,1.023437 1.032715,1.101562 0.156738,0.05176 0.316406,0.07617 0.473145,0.07617 0.628418,0 1.214355,-0.397461 1.423339,-1.026367 0.124024,-0.373047 0.09375,-0.759766 -0.05615,-1.09082 -0.09668,-1.310547 0.614258,-6.759766 3.313965,-10.214844 0.509766,-0.65332 0.394043,-1.595703 -0.258789,-2.105469 z" /><path
         inkscape:connector-curvature="0"
         id="path4547"
         d="m 25.660644,48.950195 c -0.746093,-0.356445 -1.643066,-0.04102 -2,0.706055 -0.07568,0.158203 -1.828125,3.911133 0,7.733398 0.257325,0.538086 0.794434,0.852539 1.354004,0.852539 0.216797,0 0.4375,-0.04687 0.646485,-0.146484 0.74707,-0.357422 1.062988,-1.25293 0.705566,-2.000977 -1.190918,-2.489257 -0.02197,-5.094726 0.0034,-5.15039 0.352051,-0.746094 0.03564,-1.637695 -0.709473,-1.994141 z" /><path
         inkscape:connector-curvature="0"
         id="path4549"
         d="m 44.555664,67.042969 c -0.108398,-0.819336 -0.855957,-1.401367 -1.681152,-1.291016 -0.821289,0.106446 -1.400391,0.859375 -1.293457,1.680664 0.01953,0.150391 0.499512,3.688477 2.447754,5.960938 0.296875,0.345703 0.716797,0.523437 1.13916,0.523437 0.345703,0 0.692871,-0.11914 0.976074,-0.361328 0.628906,-0.539062 0.701172,-1.486328 0.16211,-2.115234 -1.353516,-1.578125 -1.743165,-4.342774 -1.750489,-4.397461 z" /><path
         inkscape:connector-curvature="0"
         id="path4551"
         d="m 27.841797,30.240234 c -0.0625,0.06543 -1.541504,1.650391 -2.657715,4.354493 -0.315918,0.765625 0.04883,1.642578 0.814453,1.958984 0.187012,0.07715 0.38086,0.113281 0.571777,0.113281 0.589356,0 1.148438,-0.349609 1.387207,-0.927734 0.881348,-2.134766 2.028809,-3.399414 2.068848,-3.44336 0.56543,-0.602539 0.53711,-1.549804 -0.06396,-2.117187 -0.603027,-0.568359 -1.552246,-0.541016 -2.120605,0.06152 z" /></g><path
       inkscape:connector-curvature="0"
       id="path4563"
       d="M 56.882084,64.15494 C 49.390082,63.543684 44.967851,55.987296 43.598002,41.456065 43.338521,38.70351 43.236698,35.988167 43.238534,31.870009 c 0.0025,-5.568279 0.326844,-12.107216 0.745691,-15.03268 1.034239,-7.2237158 4.513764,-11.2500498 10.125,-11.7161478 1.094356,-0.0909 3.48203,0.126652 4.35238,0.396571 1.081207,0.335312 1.987289,0.944102 3.228564,2.16925 2.582034,2.5484868 4.683783,6.7271278 6.746378,13.4129658 1.24963,4.050636 2.805118,10.787514 3.203531,13.874616 0.254186,1.96956 0.363397,5.246936 0.262697,7.883363 -0.468992,12.278552 -4.838222,20.060022 -11.839244,21.085348 -1.255449,0.183865 -2.503945,0.266922 -3.181447,0.211645 z"
       style="fill:#f4e39e;fill-opacity:1;stroke:none;stroke-width:0.10893247;stroke-opacity:1" /><path
       inkscape:connector-curvature="0"
       id="path4565"
       d="m 45.248097,64.692975 c -8.24537,-0.472539 -16.905125,-2.955448 -22.019545,-6.313401 -0.884403,-0.580669 -0.929307,-0.59673 -1.552886,-0.555473 -0.575322,0.03806 -0.680183,0.08399 -1.007625,0.44129 -0.338652,0.369532 -0.426214,0.650678 -0.371175,1.191764 0.0263,0.258521 -0.04335,0.247789 -1.268855,-0.195523 C 16.713342,58.424325 14.444363,57.179335 12.307707,55.574198 7.0446756,51.620409 3.8799416,45.967613 3.1899236,39.28816 c -0.182428,-1.765928 -0.06661,-6.066471 0.214449,-7.962814 0.515956,-3.481238 1.274127,-5.993631 2.679134,-8.877995 1.960502,-4.024747 4.8369934,-7.360129 8.9038864,-10.324333 2.805263,-2.044651 8.535957,-5.2580078 10.81626,-6.0649738 1.699229,-0.601332 4.208145,-1.086436 5.648909,-1.092227 0.466402,-0.0019 0.518266,0.02046 0.437775,0.188505 -0.177022,0.369578 -0.107559,1.263437 0.122466,1.575918 0.523425,0.711053 1.601335,0.821328 2.286619,0.233932 0.200215,-0.171616 0.699004,-0.597409 1.10842,-0.946207 1.368321,-1.165727 3.753,-2.179077 6.21697,-2.641851 1.121047,-0.210551 4.606796,-0.327211 6.309404,-0.211161 l 1.158794,0.07898 -0.6425,0.344414 c -1.015348,0.54428 -1.662267,1.028308 -2.664299,1.99344 -2.96137,2.852317 -4.616064,7.0609128 -5.110604,12.9984578 -0.47938,5.755522 -0.685531,14.593408 -0.447208,19.172114 0.697696,13.404247 3.611196,22.109524 8.865223,26.488495 l 0.632017,0.526755 -1.939206,-0.02015 c -1.066564,-0.01108 -2.208815,-0.0356 -2.538336,-0.05449 z m -10.16324,-7.328361 c 0.808348,-0.492878 0.904396,-1.541906 0.226344,-2.472101 -0.721073,-0.989212 -1.291658,-2.437322 -1.612061,-4.091307 -0.07986,-0.412282 -0.221395,-0.73016 -0.419521,-0.942255 -0.595889,-0.637901 -1.611664,-0.646938 -2.237621,-0.0199 -0.324115,0.324672 -0.33592,0.369641 -0.32367,1.232981 0.02815,1.983902 1.586041,5.620219 2.698452,6.298547 0.446937,0.272534 1.215838,0.269788 1.668077,-0.006 z M 14.932351,41.67834 c 0.415624,-0.253421 0.686117,-0.732931 0.686117,-1.216301 0,-0.193187 -0.133652,-0.722583 -0.297005,-1.176433 -0.259702,-0.721549 -0.296524,-0.982511 -0.293188,-2.077907 0.0033,-1.071494 0.04623,-1.375187 0.297003,-2.099243 0.335171,-0.967732 0.362737,-1.374119 0.126188,-1.860329 -0.469823,-0.965686 -1.748499,-1.103582 -2.521365,-0.27191 -0.284938,0.306618 -0.733599,1.603986 -0.913083,2.640309 -0.293012,1.691832 0.0099,4.124156 0.67694,5.435316 0.404641,0.795403 1.471609,1.094034 2.238393,0.626498 z m 9.560274,-9.087738 c 0.351933,-0.230596 0.622722,-0.761199 0.609656,-1.194612 -0.04988,-1.654621 0.0067,-2.451798 0.264658,-3.730485 0.521702,-2.585848 1.450095,-4.935641 2.656279,-6.723128 0.29114,-0.43145 0.564207,-0.943184 0.606817,-1.137185 0.103018,-0.469036 -0.08756,-1.00821 -0.494005,-1.397607 -0.295202,-0.282823 -0.407269,-0.317533 -1.025188,-0.317533 -0.622214,0 -0.728884,0.03366 -1.03441,0.326368 -0.18736,0.179503 -0.576303,0.694208 -0.864318,1.143791 -1.804464,2.816715 -3.033371,6.727826 -3.234641,10.294547 -0.09649,1.709889 0.168903,2.477134 0.984697,2.84674 0.409399,0.185483 1.161269,0.131003 1.530455,-0.110896 z M 16.65837,19.991632 c 0.154197,-0.144861 0.473508,-0.675554 0.70958,-1.179317 0.375181,-0.800618 0.971925,-1.756764 1.905533,-3.053187 0.833143,-1.156915 -0.372565,-2.75287 -1.739029,-2.301896 -0.679224,0.224164 -1.916851,1.863405 -2.859449,3.787349 -0.617476,1.260334 -0.690142,1.711994 -0.367729,2.285651 0.35172,0.625801 0.696224,0.807449 1.445865,0.762364 0.477834,-0.02874 0.69084,-0.09956 0.905229,-0.300964 z"
       style="fill:#bc834e;fill-opacity:1;stroke:none;stroke-width:0.10893247;stroke-opacity:1" /></g></svg>